<mxfile modified="2023-05-15T13:59:41.979Z" host="Electron" agent="Mozilla/5.0 (X11; Linux x86_64) AppleWebKit/537.36 (KHTML, like Gecko) draw.io/21.2.8 Chrome/112.0.5615.165 Electron/24.2.0 Safari/537.36" etag="7uZIl39vJP_Z1nAUTJxG" version="21.2.8" type="device" pages="2">
  <diagram id="f106602c-feb2-e66a-4537-3a34d633f6aa" name="architecture">
    <mxGraphModel dx="1687" dy="912" grid="1" gridSize="10" guides="1" tooltips="1" connect="1" arrows="1" fold="1" page="1" pageScale="1" pageWidth="1169" pageHeight="827" background="none" math="0" shadow="0">
      <root>
        <mxCell id="0" />
        <mxCell id="1" parent="0" />
        <mxCell id="bnqSZ0jcVGWyU6nOASEb-988" value="" style="rounded=0;whiteSpace=wrap;html=1;strokeColor=none;" vertex="1" parent="1">
          <mxGeometry x="550" y="123" width="890" height="527" as="geometry" />
        </mxCell>
        <mxCell id="qn7ciifnxovDobxLtajS-1034" value="&lt;b&gt;Google &lt;/b&gt;Cloud Platform" style="fillColor=#F6F6F6;strokeColor=none;shadow=0;gradientColor=none;fontSize=14;align=left;spacing=10;fontColor=#717171;9E9E9E;verticalAlign=top;spacingTop=-4;fontStyle=0;spacingLeft=40;html=1;" parent="1" vertex="1">
          <mxGeometry x="800" y="130" width="628" height="510" as="geometry" />
        </mxCell>
        <mxCell id="qn7ciifnxovDobxLtajS-1035" value="" style="shape=mxgraph.gcp2.google_cloud_platform;fillColor=#F6F6F6;strokeColor=none;shadow=0;gradientColor=none;" parent="qn7ciifnxovDobxLtajS-1034" vertex="1">
          <mxGeometry width="23" height="20" relative="1" as="geometry">
            <mxPoint x="20" y="10" as="offset" />
          </mxGeometry>
        </mxCell>
        <mxCell id="qn7ciifnxovDobxLtajS-1044" value="Project" style="whiteSpace=wrap;html=1;align=left;horizontal=1;verticalAlign=top;strokeColor=#000000;fillColor=none;strokeWidth=1;dashed=1;" parent="1" vertex="1">
          <mxGeometry x="828" y="176" width="550" height="430" as="geometry" />
        </mxCell>
        <mxCell id="qn7ciifnxovDobxLtajS-1026" value="&lt;blockquote style=&quot;margin: 0 0 0 40px; border: none; padding: 0px;&quot;&gt;VPC Network&lt;/blockquote&gt;" style="whiteSpace=wrap;html=1;align=left;horizontal=1;verticalAlign=top;strokeColor=#FFFFFF;fillColor=#dae8fc;" parent="1" vertex="1">
          <mxGeometry x="866.08" y="206" width="351.92" height="380" as="geometry" />
        </mxCell>
        <mxCell id="qn7ciifnxovDobxLtajS-1027" value="Region (default: us-central1)" style="whiteSpace=wrap;html=1;align=left;horizontal=1;verticalAlign=top;strokeColor=#FFFFFF;fillColor=#d5e8d4;strokeWidth=1;" parent="1" vertex="1">
          <mxGeometry x="879.83" y="245.71" width="488.17" height="330.29" as="geometry" />
        </mxCell>
        <mxCell id="qn7ciifnxovDobxLtajS-1028" value="Subnet" style="whiteSpace=wrap;html=1;align=left;horizontal=1;verticalAlign=top;strokeColor=#FFFFFF;fillColor=#f5f5f5;fontColor=#333333;" parent="1" vertex="1">
          <mxGeometry x="901.95" y="272.27" width="296.05" height="293.73" as="geometry" />
        </mxCell>
        <mxCell id="qn7ciifnxovDobxLtajS-1025" value="" style="sketch=0;html=1;verticalAlign=top;labelPosition=center;verticalLabelPosition=bottom;align=center;spacingTop=-6;fontSize=11;fontStyle=1;fontColor=#999999;shape=image;aspect=fixed;imageAspect=0;image=data:image/svg+xml,PHN2ZyB4bWxucz0iaHR0cDovL3d3dy53My5vcmcvMjAwMC9zdmciIHhtbG5zOnY9Imh0dHBzOi8vdmVjdGEuaW8vbmFubyIgd2lkdGg9IjIwIiBoZWlnaHQ9IjIwIiB2aWV3Qm94PSIwIDAgMjAgMjAiPiYjeGE7CTxzdHlsZSB0eXBlPSJ0ZXh0L2NzcyI+JiN4YTsJLnN0MHtmaWxsOiM0Mjg1ZjQ7fSYjeGE7CS5zdDF7ZmlsbDojNjY5ZGY2O30mI3hhOwkuc3Qye2ZpbGw6I2FlY2JmYTt9JiN4YTsJPC9zdHlsZT4mI3hhOwk8cGF0aCBjbGFzcz0ic3QyIiBkPSJNMTQgMGg2djZoLTZ6Ii8+JiN4YTsJPHBhdGggY2xhc3M9InN0MSIgZD0iTTE3IDBoM3Y2aC0zeiIvPiYjeGE7CTxwYXRoIGNsYXNzPSJzdDIiIGQ9Ik0xNCAxNGg2djZoLTZ6Ii8+JiN4YTsJPHBhdGggY2xhc3M9InN0MSIgZD0iTTE3IDE0aDN2NmgtM3oiLz4mI3hhOwk8cGF0aCBjbGFzcz0ic3QyIiBkPSJNMCAwaDZ2NkgweiIvPiYjeGE7CTxwYXRoIGNsYXNzPSJzdDEiIGQ9Ik0zIDBoM3Y2SDN6Ii8+JiN4YTsJPHBhdGggY2xhc3M9InN0MiIgZD0iTTAgMTRoNnY2SDB6Ii8+JiN4YTsJPGcgY2xhc3M9InN0MSI+JiN4YTsJCTxwYXRoIGQ9Ik0zIDE0aDN2Nkgzek02IDJoOHYySDZ6Ii8+JiN4YTsJCTxwYXRoIGQ9Ik02IDE2aDh2Mkg2ek0xNiA2aDJ2OGgtMnpNMiA2aDJ2OEgyeiIvPiYjeGE7CTwvZz4mI3hhOwk8cGF0aCBjbGFzcz0ic3QwIiBkPSJNMiA2aDJ2Mkgyem0xNCAwaDJ2MmgtMnpNNiAyaDJ2Mkg2em0wIDE0aDJ2Mkg2eiIvPiYjeGE7PC9zdmc+;" parent="1" vertex="1">
          <mxGeometry x="869.8523076923077" y="209.71000000000004" width="30.483653846153846" height="30.483653846153846" as="geometry" />
        </mxCell>
        <mxCell id="qn7ciifnxovDobxLtajS-1037" value="Zone (default: us-centra1-a)" style="whiteSpace=wrap;html=1;align=left;horizontal=1;verticalAlign=top;strokeColor=#d79b00;fillColor=none;dashed=1;dashPattern=12 12;" parent="1" vertex="1">
          <mxGeometry x="917.1800000000001" y="299.71000000000004" width="270.82" height="256.29" as="geometry" />
        </mxCell>
        <mxCell id="qn7ciifnxovDobxLtajS-1029" value="&lt;blockquote style=&quot;margin: 0 0 0 40px; border: none; padding: 0px;&quot;&gt;Google Kubernetes Engine&lt;/blockquote&gt;" style="whiteSpace=wrap;html=1;align=left;horizontal=1;verticalAlign=top;strokeColor=#FFFFFF;fillColor=#ffe6cc;" parent="1" vertex="1">
          <mxGeometry x="929.76" y="332.76" width="248.24" height="213.24" as="geometry" />
        </mxCell>
        <mxCell id="qn7ciifnxovDobxLtajS-1024" value="" style="sketch=0;html=1;verticalAlign=top;labelPosition=center;verticalLabelPosition=bottom;align=center;spacingTop=-6;fontSize=11;fontStyle=1;fontColor=#999999;shape=image;aspect=fixed;imageAspect=0;image=data:image/svg+xml,PHN2ZyB4bWxucz0iaHR0cDovL3d3dy53My5vcmcvMjAwMC9zdmciIHhtbG5zOnY9Imh0dHBzOi8vdmVjdGEuaW8vbmFubyIgd2lkdGg9IjMyOS45MjU5OTcyMzE3OTM4IiBoZWlnaHQ9IjM3OC4yODQ5OTAzMTEyNzg4IiB2aWV3Qm94PSIwIDAgODcuMjkyOTk5MjY3NTc4MTIgMTAwLjA4Nzk5NzQzNjUyMzQ0Ij4mI3hhOzxzdHlsZSB0eXBlPSJ0ZXh0L2NzcyI+JiN4YTsJLnN0MHtmaWxsOiNhZWNiZmE7fSYjeGE7CS5zdDF7ZmlsbDojNjY5ZGY2O30mI3hhOwkuc3Qye2ZpbGw6IzQyODVmNDt9JiN4YTs8L3N0eWxlPiYjeGE7CTxwYXRoIGNsYXNzPSJzdDAiIGQ9Ik00My43NTEgMEwwIDI1LjQ2NXYyLjU4OCA0Ni45Mmw0My43NTIgMjUuMTE1IDQzLjU0MS0yNS4xMjFWMjUuNDczem0yLjQzOCAxMS44NTNsMzIuMTAzIDE4Ljc4MlY2OS43N0w0My43MzkgODkuNzA1IDkgNjkuNzYyVjMwLjY0MWwzMi4xOS0xOC43MzZ2MTQuMTU0TDI0LjUwMyAzNi4xNTNsMTkuMTcyIDExLjUwMiAxOC44ODYtMTEuNTU0LTE2LjM3Mi0xMC4wMjR6Ii8+JiN4YTsJPHBhdGggY2xhc3M9InN0MSIgZD0iTTIyLjAyNSA0MC40OTZsLjE2NiAxOS4xNDMtMTMuMjQ3IDcuMzN2Mi43NDJsMi42MzcgMS41MTQgMTIuNjQ4LTYuOTk5IDE2Ljk2MSAxMC42MDJWNTEuOTkzeiIvPiYjeGE7CTxwYXRoIGNsYXNzPSJzdDIiIGQ9Ik02NS4zNDQgNDAuMjZMNDYuMTg5IDUxLjk3OXYyMi44NDdsMTYuODk5LTEwLjU3NiAxMi41MzkgNi45NzQgMi42MDktMS41MDV2LTIuNzY1bC0xMi43ODQtNy4xMTJ6Ii8+JiN4YTs8L3N2Zz4=;" parent="1" vertex="1">
          <mxGeometry x="933.8438461538461" y="336.71000000000004" width="34.86538461538461" height="39.57692307692307" as="geometry" />
        </mxCell>
        <mxCell id="qn7ciifnxovDobxLtajS-1030" value="NodePool" style="whiteSpace=wrap;html=1;align=left;horizontal=1;verticalAlign=top;strokeColor=#FFFFFF;dashed=1;dashPattern=12 12;fillColor=none;" parent="1" vertex="1">
          <mxGeometry x="938.84" y="381.5" width="229.16" height="154.5" as="geometry" />
        </mxCell>
        <mxCell id="qn7ciifnxovDobxLtajS-1031" value="&lt;blockquote style=&quot;margin: 0 0 0 40px; border: none; padding: 0px;&quot;&gt;&lt;span style=&quot;white-space: pre;&quot;&gt; &lt;/span&gt;Node / VM&lt;/blockquote&gt;" style="whiteSpace=wrap;html=1;align=left;horizontal=1;verticalAlign=top;strokeColor=#FFFFFF;fillColor=#e1d5e7;" parent="1" vertex="1">
          <mxGeometry x="946.8399999999999" y="406" width="211.16" height="120" as="geometry" />
        </mxCell>
        <mxCell id="qn7ciifnxovDobxLtajS-1038" value="" style="sketch=0;html=1;verticalAlign=top;labelPosition=center;verticalLabelPosition=bottom;align=center;spacingTop=-6;fontSize=11;fontStyle=1;fontColor=#999999;shape=image;aspect=fixed;imageAspect=0;image=data:image/svg+xml,PHN2ZyB4bWxucz0iaHR0cDovL3d3dy53My5vcmcvMjAwMC9zdmciIHhtbG5zOnY9Imh0dHBzOi8vdmVjdGEuaW8vbmFubyIgd2lkdGg9IjIwIiBoZWlnaHQ9IjIwIiB2aWV3Qm94PSIwIDAgMjAgMjAiPiYjeGE7CTxzdHlsZSB0eXBlPSJ0ZXh0L2NzcyI+JiN4YTsJLnN0MHtmaWxsOiM0Mjg1ZjQ7fSYjeGE7CS5zdDF7ZmlsbDojNjY5ZGY2O30mI3hhOwkuc3Qye2ZpbGw6I2FlY2JmYTt9JiN4YTsJPC9zdHlsZT4mI3hhOwk8cGF0aCBjbGFzcz0ic3QyIiBkPSJNNyA3aDZ2Nkg3eiIvPiYjeGE7CTxwYXRoIGNsYXNzPSJzdDEiIGQ9Ik05IDBoMnY0SDl6TTUgMGgydjRINXptOCAwaDJ2NGgtMnoiLz4mI3hhOwk8cGF0aCBjbGFzcz0ic3QwIiBkPSJNOSAxNmgydjRIOXptLTQgMGgydjRINXptOCAwaDJ2NGgtMnptMy01VjloNHYyem0wIDR2LTJoNHYyem0wLThWNWg0djJ6Ii8+JiN4YTsJPHBhdGggY2xhc3M9InN0MSIgZD0iTTAgMTFWOWg0djJ6bTAgNHYtMmg0djJ6bTAtOFY1aDR2MnoiLz4mI3hhOwk8cGF0aCBjbGFzcz0ic3QyIiBkPSJNMyAzdjE0aDE0VjN6bTEyIDEySDVWNWgxMHoiLz4mI3hhOwk8cGF0aCBjbGFzcz0ic3QxIiBkPSJNMTAgMTBsLTMgM2g2eiIvPiYjeGE7CTxwYXRoIGNsYXNzPSJzdDAiIGQ9Ik0xMyA3bC0zIDMgMyAzeiIvPiYjeGE7PC9zdmc+;" parent="1" vertex="1">
          <mxGeometry x="957.2592307692307" y="416" width="39.57692307692307" height="39.57692307692307" as="geometry" />
        </mxCell>
        <mxCell id="qn7ciifnxovDobxLtajS-1047" value="" style="group;strokeColor=#0000CC;strokeWidth=3;" parent="1" vertex="1" connectable="0">
          <mxGeometry x="1028" y="479" width="120" height="38" as="geometry" />
        </mxCell>
        <mxCell id="qn7ciifnxovDobxLtajS-1045" value="&lt;blockquote style=&quot;margin: 0 0 0 40px; border: none; padding: 0px;&quot;&gt;&lt;span style=&quot;background-color: initial;&quot;&gt;MariaDB (pod)&lt;/span&gt;&lt;/blockquote&gt;" style="whiteSpace=wrap;html=1;align=left;horizontal=1;verticalAlign=middle;strokeColor=none;" parent="qn7ciifnxovDobxLtajS-1047" vertex="1">
          <mxGeometry width="120" height="38" as="geometry" />
        </mxCell>
        <mxCell id="qn7ciifnxovDobxLtajS-1046" value="" style="sketch=0;html=1;dashed=0;whitespace=wrap;fillColor=#2875E2;strokeColor=#ffffff;points=[[0.005,0.63,0],[0.1,0.2,0],[0.9,0.2,0],[0.5,0,0],[0.995,0.63,0],[0.72,0.99,0],[0.5,1,0],[0.28,0.99,0]];verticalLabelPosition=bottom;align=center;verticalAlign=top;shape=mxgraph.kubernetes.icon;prIcon=pod" parent="qn7ciifnxovDobxLtajS-1047" vertex="1">
          <mxGeometry x="4" y="2" width="41.16" height="33.85" as="geometry" />
        </mxCell>
        <mxCell id="qn7ciifnxovDobxLtajS-1048" value="" style="group;strokeColor=#0000CC;strokeWidth=3;" parent="1" vertex="1" connectable="0">
          <mxGeometry x="1028" y="437" width="120" height="38" as="geometry" />
        </mxCell>
        <mxCell id="qn7ciifnxovDobxLtajS-1033" value="&lt;blockquote style=&quot;margin: 0 0 0 40px; border: none; padding: 0px;&quot;&gt;&lt;span style=&quot;background-color: initial;&quot;&gt;Flask&amp;nbsp;&lt;/span&gt;&lt;span style=&quot;background-color: initial;&quot;&gt;(pod)&lt;/span&gt;&lt;/blockquote&gt;" style="whiteSpace=wrap;html=1;align=left;horizontal=1;verticalAlign=middle;strokeColor=none;" parent="qn7ciifnxovDobxLtajS-1048" vertex="1">
          <mxGeometry width="120" height="38" as="geometry" />
        </mxCell>
        <mxCell id="qn7ciifnxovDobxLtajS-1041" value="" style="sketch=0;html=1;dashed=0;whitespace=wrap;fillColor=#2875E2;strokeColor=#ffffff;points=[[0.005,0.63,0],[0.1,0.2,0],[0.9,0.2,0],[0.5,0,0],[0.995,0.63,0],[0.72,0.99,0],[0.5,1,0],[0.28,0.99,0]];verticalLabelPosition=bottom;align=center;verticalAlign=top;shape=mxgraph.kubernetes.icon;prIcon=pod" parent="qn7ciifnxovDobxLtajS-1048" vertex="1">
          <mxGeometry x="3.6923076923076925" y="2" width="37.99384615384615" height="33.85" as="geometry" />
        </mxCell>
        <mxCell id="qQOg1TQT9leHixTdQCVj-988" value="" style="strokeColor=#dddddd;shadow=1;strokeWidth=1;rounded=1;absoluteArcSize=1;arcSize=2;" parent="1" vertex="1">
          <mxGeometry x="1237" y="212" width="120" height="60" as="geometry" />
        </mxCell>
        <mxCell id="qQOg1TQT9leHixTdQCVj-989" value="Cloud&#xa;Storage" style="editableCssRules=.*;html=1;fontColor=#999999;shape=image;verticalLabelPosition=middle;labelBackgroundColor=#ffffff;verticalAlign=middle;labelPosition=right;align=left;spacingLeft=20;part=1;points=[];imageAspect=0;image=data:image/svg+xml,PHN2ZyB4bWxucz0iaHR0cDovL3d3dy53My5vcmcvMjAwMC9zdmciIHhtbG5zOnY9Imh0dHBzOi8vdmVjdGEuaW8vbmFubyIgd2lkdGg9IjIwIiBoZWlnaHQ9IjE2IiB2aWV3Qm94PSIwIDAgMjAgMTYiPiYjeGE7CTxzdHlsZSB0eXBlPSJ0ZXh0L2NzcyI+JiN4YTsJLnN0MHtmaWxsOiM0Mjg1ZjQ7fSYjeGE7CS5zdDF7ZmlsbDojNjY5ZGY2O30mI3hhOwkuc3Qye2ZpbGw6I2FlY2JmYTt9JiN4YTsJLnN0M3tmaWxsOiNmZmY7fSYjeGE7CTwvc3R5bGU+JiN4YTsJPHBhdGggY2xhc3M9InN0MiIgZD0iTTAgMGgyMHY3SDB6Ii8+JiN4YTsJPHBhdGggY2xhc3M9InN0MSIgZD0iTTE4IDBoMnY3aC0yeiIvPiYjeGE7CTxwYXRoIGNsYXNzPSJzdDAiIGQ9Ik0xOCA3bDItN2gtMnoiLz4mI3hhOwk8cGF0aCBjbGFzcz0ic3QxIiBkPSJNMCAwaDJ2N0gweiIvPiYjeGE7CTxnIGNsYXNzPSJzdDMiPiYjeGE7CQk8cGF0aCBkPSJNNCAzaDZ2MUg0eiIvPiYjeGE7CQk8cmVjdCB4PSIxMyIgeT0iMiIgd2lkdGg9IjMiIGhlaWdodD0iMyIgcng9IjEuNSIvPiYjeGE7CTwvZz4mI3hhOwk8cGF0aCBjbGFzcz0ic3QyIiBkPSJNMCA5aDIwdjdIMHoiLz4mI3hhOwk8cGF0aCBjbGFzcz0ic3QxIiBkPSJNMTggOWgydjdoLTJ6Ii8+JiN4YTsJPHBhdGggY2xhc3M9InN0MCIgZD0iTTE4IDE2bDItN2gtMnoiLz4mI3hhOwk8cGF0aCBjbGFzcz0ic3QxIiBkPSJNMCA5aDJ2N0gweiIvPiYjeGE7CTxnIGNsYXNzPSJzdDMiPiYjeGE7CQk8cGF0aCBkPSJNNCAxMmg2djFINHoiLz4mI3hhOwkJPHJlY3QgeD0iMTMiIHk9IjExIiB3aWR0aD0iMyIgaGVpZ2h0PSIzIiByeD0iMS41Ii8+JiN4YTsJPC9nPiYjeGE7PC9zdmc+;" parent="qQOg1TQT9leHixTdQCVj-988" vertex="1">
          <mxGeometry width="30" height="24" relative="1" as="geometry">
            <mxPoint x="15" y="18" as="offset" />
          </mxGeometry>
        </mxCell>
        <mxCell id="qQOg1TQT9leHixTdQCVj-991" value="" style="strokeColor=#dddddd;shadow=1;strokeWidth=1;rounded=1;absoluteArcSize=1;arcSize=2;" parent="1" vertex="1">
          <mxGeometry x="1228" y="508" width="130" height="60" as="geometry" />
        </mxCell>
        <mxCell id="qQOg1TQT9leHixTdQCVj-992" value="Artifact&#xa;Registry" style="editableCssRules=.*;html=1;fontColor=#999999;shape=image;verticalLabelPosition=middle;labelBackgroundColor=#ffffff;verticalAlign=middle;labelPosition=right;align=left;spacingLeft=20;part=1;points=[];imageAspect=0;image=data:image/svg+xml,PHN2ZyB4bWxucz0iaHR0cDovL3d3dy53My5vcmcvMjAwMC9zdmciIHhtbG5zOnY9Imh0dHBzOi8vdmVjdGEuaW8vbmFubyIgd2lkdGg9IjIxLjk5OTAwMDU0OTMxNjQwNiIgaGVpZ2h0PSIyMC4zOTM5OTkwOTk3MzE0NDUiIHZpZXdCb3g9IjAgMCAyMS45OTkwMDA1NDkzMTY0MDYgMjAuMzkzOTk5MDk5NzMxNDQ1Ij4mI3hhOwk8c3R5bGUgdHlwZT0idGV4dC9jc3MiPiYjeGE7CS5zdDB7ZmlsbDojNDI4NWY0O2ZpbGwtcnVsZTpldmVub2RkfSYjeGE7CTwvc3R5bGU+JiN4YTsJPHBhdGggY2xhc3M9InN0MCIgZD0iTTUgMHYyLjQ1OEwxLjk5OSA0LjE5N3YxMi4wMUw1IDE3LjkzOHYyLjQ1NmwtNS0yLjg4N1YyLjg4NnptMTIgMGw0Ljk5OSAyLjg4NnYxNC42MjFMMTcgMjAuMzk0di0yLjQ1NmwzLTEuNzMxVjQuMTk3bC0zLTEuNzM5em0tNi4wMTYgNi42NzNsMi45NDctMS42NDYtMi45NDctMS42NDYtMi45NDcgMS42NDZ6bTMuMjY4LTEuMDk2bC0yLjg3MSAxLjY3OHYzLjI4N2wyLjg3MS0xLjY3NnpNNy43NzMgOC44NjZsMi44NzEgMS42NzRWNy4yNTZMNy43NzMgNS41Nzd6bS0uMjEyIDMuODc4bDIuODItMS42NDYtMi44Mi0xLjY0Ni0yLjgyIDEuNjQ2em0zLjEzMi0xLjA5OGwtMi44NzEgMS42Nzh2My4yODdsMi44NzEtMS42NzZ6bS02LjI2NCAzLjI4OUw3LjMgMTYuNjA5di0zLjI4NWwtMi44NzEtMS42Nzl6bTEwLjAyOS0yLjE5MWwyLjgyLTEuNjQ2LTIuODItMS42NDYtMi44MiAxLjY0NnptMy4xMzItMS4wOThsLTIuODcxIDEuNjc4djMuMjg3bDIuODcxLTEuNjc2em0tNi4yNjQgMy4yODlsMi44NzEgMS42NzR2LTMuMjg1bC0yLjg3MS0xLjY3OXoiLz4mI3hhOzwvc3ZnPg==;" parent="qQOg1TQT9leHixTdQCVj-991" vertex="1">
          <mxGeometry width="30" height="27" relative="1" as="geometry">
            <mxPoint x="15" y="16" as="offset" />
          </mxGeometry>
        </mxCell>
        <mxCell id="qQOg1TQT9leHixTdQCVj-993" value="" style="strokeColor=#0000CC;shadow=1;strokeWidth=3;rounded=1;absoluteArcSize=1;arcSize=2;" parent="1" vertex="1">
          <mxGeometry x="869.85" y="475" width="129.29" height="50" as="geometry" />
        </mxCell>
        <mxCell id="qQOg1TQT9leHixTdQCVj-994" value="HTTP&lt;br&gt;Load Balancer" style="sketch=0;dashed=0;connectable=0;html=1;fillColor=#757575;strokeColor=none;shape=mxgraph.gcp2.network_load_balancer;part=1;labelPosition=right;verticalLabelPosition=middle;align=left;verticalAlign=middle;spacingLeft=5;fontSize=12;" parent="qQOg1TQT9leHixTdQCVj-993" vertex="1">
          <mxGeometry y="0.5" width="32" height="32" relative="1" as="geometry">
            <mxPoint x="5" y="-16" as="offset" />
          </mxGeometry>
        </mxCell>
        <mxCell id="cZPVlfks6_vVBo4cTopG-993" value="" style="whiteSpace=wrap;html=1;align=left;horizontal=1;verticalAlign=top;strokeWidth=3;strokeColor=#000099;" vertex="1" parent="1">
          <mxGeometry x="560" y="595" width="80" height="30" as="geometry" />
        </mxCell>
        <mxCell id="cZPVlfks6_vVBo4cTopG-996" value="Create manually" style="whiteSpace=wrap;html=1;align=left;horizontal=1;verticalAlign=middle;strokeWidth=1;fillColor=none;strokeColor=none;fontSize=14;" vertex="1" parent="1">
          <mxGeometry x="642" y="532" width="140" height="50" as="geometry" />
        </mxCell>
        <mxCell id="cZPVlfks6_vVBo4cTopG-997" value="Create with Helm" style="whiteSpace=wrap;html=1;align=left;horizontal=1;verticalAlign=middle;strokeWidth=1;fillColor=none;strokeColor=none;fontSize=14;" vertex="1" parent="1">
          <mxGeometry x="643" y="584" width="140" height="50" as="geometry" />
        </mxCell>
        <mxCell id="cZPVlfks6_vVBo4cTopG-999" value="" style="whiteSpace=wrap;html=1;align=left;horizontal=1;verticalAlign=top;strokeWidth=1;" vertex="1" parent="1">
          <mxGeometry x="560" y="545" width="80" height="30" as="geometry" />
        </mxCell>
        <mxCell id="cZPVlfks6_vVBo4cTopG-992" value="" style="shape=image;verticalLabelPosition=bottom;labelBackgroundColor=default;verticalAlign=top;aspect=fixed;imageAspect=0;image=data:image/svg+xml,PHN2ZyB4bWxuczp4bGluaz0iaHR0cDovL3d3dy53My5vcmcvMTk5OS94bGluayIgeG1sbnM9Imh0dHA6Ly93d3cudzMub3JnLzIwMDAvc3ZnIiB4bWw6c3BhY2U9InByZXNlcnZlIiB2aWV3Qm94PSIwIDAgMTAwMCAxMDAwIiB5PSIwcHgiIHg9IjBweCIgdmVyc2lvbj0iMS4xIj4mI3hhOzxtZXRhZGF0YT4gU3ZnIFZlY3RvciBJY29ucyA6IGh0dHA6Ly93d3cub25saW5ld2ViZm9udHMuY29tL2ljb24gPC9tZXRhZGF0YT4mI3hhOzxnPjxwYXRoIGQ9Ik05MjUuOSw1MzguM2MtMzEuOS0zMS45LTc4LjktMzQuOC0xMTAuOC0yLjlsLTkxLjIsOTEuMWMtMjMuNywyMy43LTUyLjMsMjMuNy02OSw0Yy0xMS4xLTEzLjEtNi43LTUzLjMtMy42LTc4LjlMNjk3LDE3NS44YzQuMS0zMy42LTE5LjgtNjYtNTMuNC03MC4xYy0zMy42LTQuMS02NC4xLDIxLjctNjguMiw1NS4zbC01MC40LDI5NS4zYy0yLjYsNy4zLTguMyw4LjYtOC45LTEuM0w0OTguOCw3MS4zYzAtMzMuOC0yNy40LTYxLjMtNjEuMy02MS4zYy0zMy44LDAtNjEuMywyNy40LTYxLjMsNjEuM0wzNzUsNDU3LjljMC4zLDQuNS0zLjUsNS43LTQuMiwwLjZsLTU0LjUtMzAxLjhjLTYtMzMuMy0zNy45LTU3LjMtNzEuMi01MS4zYy0zMy4zLDYtNTUuNCwzOS44LTQ5LjQsNzMuMWw0OC41LDM1My4yYzAsNi4zLTIuMSw5LjktNSwxLjhsLTcyLjQtMTkzLjZjLTExLjMtMzEuOS00Ni40LTUwLjUtNzguMy0zOS4xYy0zMS45LDExLjMtNDguNiw0OC4zLTM3LjIsODAuMWwxMjcsNDE0LjhjMC43LDIuMywxLjQsNC42LDIuMSw2LjhsMC4zLDAuOWMwLDAuMSwwLjEsMC4xLDAuMSwwLjJDMjE1LjgsOTExLjgsMzE3LjUsOTkwLDQzNy41LDk5MGM3Ni44LDAsMTU2LjYtMjcuMSwyMTcuMy03My43bDAsMGM2NS42LTM5LjUsMjc1LjgtMjY1LjQsMjc1LjgtMjY1LjRDOTYyLjUsNjE5LDk1Ny44LDU3MC4yLDkyNS45LDUzOC4zTDkyNS45LDUzOC4zeiIvPjwvZz4mI3hhOzwvc3ZnPg==;flipH=1;" vertex="1" parent="1">
          <mxGeometry x="610" y="553" width="40" height="40" as="geometry" />
        </mxCell>
        <mxCell id="cZPVlfks6_vVBo4cTopG-1000" value="" style="shape=image;verticalLabelPosition=bottom;labelBackgroundColor=default;verticalAlign=top;aspect=fixed;imageAspect=0;image=data:image/svg+xml,PHN2ZyB4bWxuczp4bGluaz0iaHR0cDovL3d3dy53My5vcmcvMTk5OS94bGluayIgeG1sbnM9Imh0dHA6Ly93d3cudzMub3JnLzIwMDAvc3ZnIiB4bWw6c3BhY2U9InByZXNlcnZlIiB2aWV3Qm94PSIwIDAgMTAwMCAxMDAwIiB5PSIwcHgiIHg9IjBweCIgdmVyc2lvbj0iMS4xIj4mI3hhOzxtZXRhZGF0YT4gU3ZnIFZlY3RvciBJY29ucyA6IGh0dHA6Ly93d3cub25saW5ld2ViZm9udHMuY29tL2ljb24gPC9tZXRhZGF0YT4mI3hhOzxnPjxwYXRoIGQ9Ik05MjUuOSw1MzguM2MtMzEuOS0zMS45LTc4LjktMzQuOC0xMTAuOC0yLjlsLTkxLjIsOTEuMWMtMjMuNywyMy43LTUyLjMsMjMuNy02OSw0Yy0xMS4xLTEzLjEtNi43LTUzLjMtMy42LTc4LjlMNjk3LDE3NS44YzQuMS0zMy42LTE5LjgtNjYtNTMuNC03MC4xYy0zMy42LTQuMS02NC4xLDIxLjctNjguMiw1NS4zbC01MC40LDI5NS4zYy0yLjYsNy4zLTguMyw4LjYtOC45LTEuM0w0OTguOCw3MS4zYzAtMzMuOC0yNy40LTYxLjMtNjEuMy02MS4zYy0zMy44LDAtNjEuMywyNy40LTYxLjMsNjEuM0wzNzUsNDU3LjljMC4zLDQuNS0zLjUsNS43LTQuMiwwLjZsLTU0LjUtMzAxLjhjLTYtMzMuMy0zNy45LTU3LjMtNzEuMi01MS4zYy0zMy4zLDYtNTUuNCwzOS44LTQ5LjQsNzMuMWw0OC41LDM1My4yYzAsNi4zLTIuMSw5LjktNSwxLjhsLTcyLjQtMTkzLjZjLTExLjMtMzEuOS00Ni40LTUwLjUtNzguMy0zOS4xYy0zMS45LDExLjMtNDguNiw0OC4zLTM3LjIsODAuMWwxMjcsNDE0LjhjMC43LDIuMywxLjQsNC42LDIuMSw2LjhsMC4zLDAuOWMwLDAuMSwwLjEsMC4xLDAuMSwwLjJDMjE1LjgsOTExLjgsMzE3LjUsOTkwLDQzNy41LDk5MGM3Ni44LDAsMTU2LjYtMjcuMSwyMTcuMy03My43bDAsMGM2NS42LTM5LjUsMjc1LjgtMjY1LjQsMjc1LjgtMjY1LjRDOTYyLjUsNjE5LDk1Ny44LDU3MC4yLDkyNS45LDUzOC4zTDkyNS45LDUzOC4zeiIvPjwvZz4mI3hhOzwvc3ZnPg==;flipH=1;" vertex="1" parent="1">
          <mxGeometry x="1348" y="166" width="40" height="40" as="geometry" />
        </mxCell>
        <mxCell id="cZPVlfks6_vVBo4cTopG-1001" value="" style="shape=image;verticalLabelPosition=bottom;labelBackgroundColor=default;verticalAlign=top;aspect=fixed;imageAspect=0;image=data:image/svg+xml,PHN2ZyB4bWxuczp4bGluaz0iaHR0cDovL3d3dy53My5vcmcvMTk5OS94bGluayIgeG1sbnM9Imh0dHA6Ly93d3cudzMub3JnLzIwMDAvc3ZnIiB4bWw6c3BhY2U9InByZXNlcnZlIiB2aWV3Qm94PSIwIDAgMTAwMCAxMDAwIiB5PSIwcHgiIHg9IjBweCIgdmVyc2lvbj0iMS4xIj4mI3hhOzxtZXRhZGF0YT4gU3ZnIFZlY3RvciBJY29ucyA6IGh0dHA6Ly93d3cub25saW5ld2ViZm9udHMuY29tL2ljb24gPC9tZXRhZGF0YT4mI3hhOzxnPjxwYXRoIGQ9Ik05MjUuOSw1MzguM2MtMzEuOS0zMS45LTc4LjktMzQuOC0xMTAuOC0yLjlsLTkxLjIsOTEuMWMtMjMuNywyMy43LTUyLjMsMjMuNy02OSw0Yy0xMS4xLTEzLjEtNi43LTUzLjMtMy42LTc4LjlMNjk3LDE3NS44YzQuMS0zMy42LTE5LjgtNjYtNTMuNC03MC4xYy0zMy42LTQuMS02NC4xLDIxLjctNjguMiw1NS4zbC01MC40LDI5NS4zYy0yLjYsNy4zLTguMyw4LjYtOC45LTEuM0w0OTguOCw3MS4zYzAtMzMuOC0yNy40LTYxLjMtNjEuMy02MS4zYy0zMy44LDAtNjEuMywyNy40LTYxLjMsNjEuM0wzNzUsNDU3LjljMC4zLDQuNS0zLjUsNS43LTQuMiwwLjZsLTU0LjUtMzAxLjhjLTYtMzMuMy0zNy45LTU3LjMtNzEuMi01MS4zYy0zMy4zLDYtNTUuNCwzOS44LTQ5LjQsNzMuMWw0OC41LDM1My4yYzAsNi4zLTIuMSw5LjktNSwxLjhsLTcyLjQtMTkzLjZjLTExLjMtMzEuOS00Ni40LTUwLjUtNzguMy0zOS4xYy0zMS45LDExLjMtNDguNiw0OC4zLTM3LjIsODAuMWwxMjcsNDE0LjhjMC43LDIuMywxLjQsNC42LDIuMSw2LjhsMC4zLDAuOWMwLDAuMSwwLjEsMC4xLDAuMSwwLjJDMjE1LjgsOTExLjgsMzE3LjUsOTkwLDQzNy41LDk5MGM3Ni44LDAsMTU2LjYtMjcuMSwyMTcuMy03My43bDAsMGM2NS42LTM5LjUsMjc1LjgtMjY1LjQsMjc1LjgtMjY1LjRDOTYyLjUsNjE5LDk1Ny44LDU3MC4yLDkyNS45LDUzOC4zTDkyNS45LDUzOC4zeiIvPjwvZz4mI3hhOzwvc3ZnPg==;flipH=1;" vertex="1" parent="1">
          <mxGeometry x="1328" y="249.5" width="40" height="40" as="geometry" />
        </mxCell>
        <mxCell id="bnqSZ0jcVGWyU6nOASEb-989" value="Legend:" style="rounded=0;whiteSpace=wrap;html=1;fillColor=none;verticalAlign=top;align=left;" vertex="1" parent="1">
          <mxGeometry x="550" y="470" width="240" height="177" as="geometry" />
        </mxCell>
        <mxCell id="cZPVlfks6_vVBo4cTopG-990" value="" style="whiteSpace=wrap;html=1;align=left;horizontal=1;verticalAlign=top;strokeWidth=1;" vertex="1" parent="1">
          <mxGeometry x="560" y="505" width="80" height="30" as="geometry" />
        </mxCell>
        <mxCell id="cZPVlfks6_vVBo4cTopG-994" value="Create with Terraform" style="whiteSpace=wrap;html=1;align=left;horizontal=1;verticalAlign=middle;strokeWidth=1;fillColor=none;strokeColor=none;fontSize=14;" vertex="1" parent="1">
          <mxGeometry x="642" y="507" width="140" height="25" as="geometry" />
        </mxCell>
      </root>
    </mxGraphModel>
  </diagram>
  <diagram id="0i-9VPSlKqJjLqNhT6YN" name="CI/CD">
    <mxGraphModel dx="819" dy="443" grid="1" gridSize="10" guides="1" tooltips="1" connect="1" arrows="1" fold="1" page="1" pageScale="1" pageWidth="827" pageHeight="1169" math="0" shadow="0">
      <root>
        <mxCell id="0" />
        <mxCell id="1" parent="0" />
        <mxCell id="eRYwjqBZ85bHJmp5E3Jt-10" value="GitHub Action" style="rounded=0;whiteSpace=wrap;html=1;align=left;verticalAlign=top;strokeColor=default;" vertex="1" parent="1">
          <mxGeometry x="40" y="120" width="570" height="200" as="geometry" />
        </mxCell>
        <mxCell id="owPEdgUP4TcelFvnXaxz-7" value="- Install/upgrade the application" style="rounded=0;whiteSpace=wrap;html=1;align=left;strokeColor=none;verticalAlign=top;" vertex="1" parent="1">
          <mxGeometry x="474" y="238" width="126" height="60" as="geometry" />
        </mxCell>
        <mxCell id="owPEdgUP4TcelFvnXaxz-6" value="- Build the application container&lt;br&gt;- Push to the repository" style="rounded=0;whiteSpace=wrap;html=1;align=left;strokeColor=none;verticalAlign=top;" vertex="1" parent="1">
          <mxGeometry x="279" y="241" width="178" height="47" as="geometry" />
        </mxCell>
        <mxCell id="owPEdgUP4TcelFvnXaxz-1" value="- Deploy network (vpc + subnet)&lt;br&gt;- Create docker repository&lt;br&gt;- Create GKE cluster &amp;amp; Node pool" style="rounded=0;whiteSpace=wrap;html=1;align=left;strokeColor=none;verticalAlign=top;" vertex="1" parent="1">
          <mxGeometry x="83" y="241" width="180" height="69" as="geometry" />
        </mxCell>
        <mxCell id="owPEdgUP4TcelFvnXaxz-2" value="&lt;font style=&quot;font-size: 16px;&quot;&gt;Terraform&lt;/font&gt;" style="ellipse;whiteSpace=wrap;html=1;aspect=fixed;labelPosition=center;verticalLabelPosition=bottom;align=center;verticalAlign=top;" vertex="1" parent="1">
          <mxGeometry x="130" y="140" width="80" height="80" as="geometry" />
        </mxCell>
        <mxCell id="owPEdgUP4TcelFvnXaxz-3" value="&lt;font style=&quot;font-size: 16px;&quot;&gt;Build &amp;amp; Push&lt;/font&gt;" style="ellipse;html=1;aspect=fixed;labelPosition=center;verticalLabelPosition=bottom;align=center;verticalAlign=top;" vertex="1" parent="1">
          <mxGeometry x="320" y="140" width="80" height="80" as="geometry" />
        </mxCell>
        <mxCell id="owPEdgUP4TcelFvnXaxz-4" value="Helm install" style="ellipse;aspect=fixed;labelPosition=center;verticalLabelPosition=bottom;align=center;verticalAlign=top;html=1;fontSize=16;" vertex="1" parent="1">
          <mxGeometry x="493" y="139" width="80" height="80" as="geometry" />
        </mxCell>
        <mxCell id="eRYwjqBZ85bHJmp5E3Jt-2" value="" style="shape=image;verticalLabelPosition=bottom;verticalAlign=top;imageAspect=0;aspect=fixed;image=data:image/svg+xml,PHN2ZyB4bWxucz0iaHR0cDovL3d3dy53My5vcmcvMjAwMC9zdmciIHZpZXdCb3g9IjAgMCAxMTYuMTIgMTE0LjY0Ij48ZGVmcz48c3R5bGU+LmNscy0xe2ZpbGw6IzVjNGVlNTt9LmNscy0xLC5jbHMtMntmaWxsLXJ1bGU6ZXZlbm9kZDt9LmNscy0ye2ZpbGw6IzQwNDBiMjt9PC9zdHlsZT48L2RlZnM+PHRpdGxlPkFzc2V0IDE8L3RpdGxlPjxnIGRhdGEtbmFtZT0iTGF5ZXIgMiIgaWQ9IkxheWVyXzIiPjxnIGlkPSJMb2dvIj48cGF0aCBkPSJNMi45Miw4OS4yN1Y4Ny4xNUgxdjIuMTFIMFY4NC4xOUgxdjIuMTNIMi45MlY4NC4xOWgxdjUuMDhabTQuNjEsMEg2Ljc1TDYuNjgsODlhMi4xNSwyLjE1LDAsMCwxLTEuMTQuMzJjLS43LDAtMS0uNDYtMS0xLjA5cy4zNC0xLDEuMTEtMWguOTJ2LS4zOGMwLS40MS0uMTItLjU1LS43My0uNTVhNS41NSw1LjU1LDAsMCwwLTEuMDYuMTFsLS4xMi0uN0E1LjE4LDUuMTgsMCwwLDEsNiw4NS41M2MxLjIsMCwxLjU1LjQxLDEuNTUsMS4zMlptLTEtMS4zOEg1Ljg3Yy0uMzEsMC0uNC4wOC0uNC4zNnMuMDkuMzcuMzguMzdhMS41NSwxLjU1LDAsMCwwLC43Mi0uMTlabTMsMS40NmE0LjY3LDQuNjcsMCwwLDEtMS4zMi0uMjFsLjEzLS43YTQuNDQsNC40NCwwLDAsMCwxLjE0LjE2Yy40MiwwLC40OS0uMDkuNDktLjM3czAtLjM0LS42Ny0uNDhjLS45My0uMjItMS0uNDQtMS0xLjE1cy4zNC0xLjA2LDEuNDMtMS4wNmE1LjIyLDUuMjIsMCwwLDEsMS4xNC4xM2wtLjA5LjczYTcsNywwLDAsMC0xLjA1LS4xMWMtLjQyLDAtLjQ5LjA5LS40OS4zMnMwLC4zMi41NC40NGMxLjA3LjI3LDEuMTcuNDEsMS4xNywxLjE2UzEwLjY5LDg5LjM0LDkuNTQsODkuMzRabTQuMzgtLjA4Vjg2LjcxYzAtLjItLjA5LS4yOS0uMzEtLjI5YTIuNzIsMi43MiwwLDAsMC0xLC4zMXYyLjU0aC0xVjg0LjEybDEsLjE0djEuNjJhMy40OCwzLjQ4LDAsMCwxLDEuNC0uMzVjLjYzLDAsLjg2LjQzLjg2LDEuMDh2Mi42NlptMS43Ni00LjE4di0uOWgxdi45Wm0wLDQuMThWODUuNmgxdjMuNjdabTEuNzItMy42M2MwLS45Mi41Ni0xLjQ1LDEuODYtMS40NWE2LjE0LDYuMTQsMCwwLDEsMS40Mi4xN2wtLjExLjgyQTgsOCwwLDAsMCwxOS4yOCw4NWMtLjY4LDAtLjkuMjMtLjkuNzZ2MS45M2MwLC41My4yMi43Ni45Ljc2YTgsOCwwLDAsMCwxLjI4LS4xM2wuMTEuODJhNi4xNCw2LjE0LDAsMCwxLTEuNDIuMTdjLTEuMywwLTEuODYtLjUzLTEuODYtMS40NVptNS4zOSwzLjcxYy0xLjMxLDAtMS42Ni0uNjktMS42Ni0xLjQ0Vjg3YzAtLjc1LjM1LTEuNDQsMS42Ni0xLjQ0czEuNjYuNjksMS42NiwxLjQ0di45M0MyNC40NCw4OC42NSwyNC4wOSw4OS4zNCwyMi43OCw4OS4zNFptMC0zYy0uNTEsMC0uNzEuMjItLjcxLjYzdjFjMCwuNDEuMi42My43MS42M3MuNzEtLjIyLjcxLS42M3YtMUMyMy40OSw4Ni41MywyMy4yOSw4Ni4zMSwyMi43OCw4Ni4zMVptNC4zNS4wNmE3LjU4LDcuNTgsMCwwLDAtMSwuNTN2Mi4zNmgtMVY4NS42SDI2TDI2LDg2YTQuMzUsNC4zNSwwLDAsMSwxLS40OFpNMzEsODhhMS4xMywxLjEzLDAsMCwxLTEuMjYsMS4yOSw1LjQ4LDUuNDgsMCwwLDEtMS0uMTF2MS41bC0xLC4xNFY4NS42aC43NmwuMDkuMzFhMi4wNiwyLjA2LDAsMCwxLDEuMjEtLjM4Yy43NywwLDEuMTguNDQsMS4xOCwxLjI3Wm0tMi4yOC40MWE0LjQxLDQuNDEsMCwwLDAsLjg1LjFjLjM0LDAsLjQ4LS4xNi40OC0uNDlWODYuNzhjMC0uMy0uMTItLjQ3LS40Ny0uNDdhMS4zOCwxLjM4LDAsMCwwLS44NS4zM1oiLz48cGF0aCBkPSJNNS44Myw5Ni45M0gwVjkzLjQ1SDE1LjYxdjMuNDhIOS43OHYxNy40SDUuODNaIi8+PHBhdGggZD0iTTE5LjIxLDExMS41YTE2LDE2LDAsMCwwLDQuNjctLjcybC42LDIuODhhMTYuMzksMTYuMzksMCwwLDEtNS42MSwxYy00LjgsMC02LjQ2LTIuMjMtNi40Ni01Ljg5di00YzAtMy4yMywxLjQ0LTYsNi4zMy02czYsMi44NSw2LDYuMTR2My4yNkgxNi4yNHYuNzhDMTYuMjQsMTEwLjc4LDE2Ljg5LDExMS41LDE5LjIxLDExMS41Wm0tMy02LjQzaDQuODZ2LS43NWMwLTEuNDQtLjQ0LTIuNDQtMi4zMi0yLjQ0cy0yLjU0LDEtMi41NCwyLjQ0WiIvPjxwYXRoIGQ9Ik0zNC45NSwxMDIuMjZhMjkuOTMsMjkuOTMsMCwwLDAtNCwyLjIzdjkuODRIMjcuMDhWOTkuMDZoMy4yM2wuMjUsMS42OWExNy4xLDE3LjEsMCwwLDEsNC0yWiIvPjxwYXRoIGQ9Ik00NC4yOSwxMDIuMjZhMjkuOTMsMjkuOTMsMCwwLDAtNCwyLjIzdjkuODRIMzYuNDJWOTkuMDZoMy4yM2wuMjUsMS42OWExNy4xLDE3LjEsMCwwLDEsNC0yWiIvPjxwYXRoIGQ9Ik01Ny4wNywxMTQuMzJINTMuOTRsLS4yOC0xYTguMzUsOC4zNSwwLDAsMS00LjU0LDEuMzVjLTIuNzksMC00LTEuOTEtNC00LjU0LDAtMy4xLDEuMzUtNC4yOSw0LjQ1LTQuMjloMy42N3YtMS42YzAtMS42OS0uNDctMi4yOS0yLjkxLTIuMjlhMjEuMzMsMjEuMzMsMCwwLDAtNC4yMy40N2wtLjQ3LTIuOTFhMTkuOTIsMTkuOTIsMCwwLDEsNS4yMy0uNzJjNC44LDAsNi4yMSwxLjY5LDYuMjEsNS41MlptLTMuODItNS43N0g1MC40M2MtMS4yNSwwLTEuNi4zNC0xLjYsMS41cy4zNCwxLjU0LDEuNTQsMS41NGE2LDYsMCwwLDAsMi44OC0uNzhaIi8+PHBhdGggZD0iTTY4LjgzLDk1LjU4YTExLjIyLDExLjIyLDAsMCwwLTIuMTktLjI1Yy0xLjUsMC0xLjcyLjY2LTEuNzIsMS44MnYxLjkxSDY4LjhsLS4yMiwzSDY0LjkxdjEyLjIySDYxLjA5VjEwMi4xSDU4LjY0di0zaDIuNDRWOTYuOTNjMC0zLjE3LDEuNDctNC43Myw0Ljg2LTQuNzNhMTIuMTEsMTIuMTEsMCwwLDEsMy4yOS40NFoiLz48cGF0aCBkPSJNNzYuMjksMTE0LjY0Yy01LjIzLDAtNi42NC0yLjg4LTYuNjQtNnYtMy44NmMwLTMuMTMsMS40MS02LDYuNjQtNnM2LjY1LDIuODgsNi42NSw2djMuODZDODIuOTMsMTExLjc1LDgxLjUyLDExNC42NCw3Ni4yOSwxMTQuNjRabTAtMTIuNjNjLTIsMC0yLjgyLjkxLTIuODIsMi42M3Y0LjExYzAsMS43Mi43OCwyLjYzLDIuODIsMi42M3MyLjgyLS45MSwyLjgyLTIuNjN2LTQuMTFDNzkuMTEsMTAyLjkxLDc4LjMyLDEwMiw3Ni4yOSwxMDJaIi8+PHBhdGggZD0iTTkyLjc3LDEwMi4yNmEyOS45MywyOS45MywwLDAsMC00LDIuMjN2OS44NEg4NC45MVY5OS4wNmgzLjIzbC4yNSwxLjY5YTE3LjEsMTcuMSwwLDAsMSw0LTJaIi8+PHBhdGggZD0iTTEwMy4yNywxMTQuMzJWMTAzLjY3YzAtLjgxLS4zNC0xLjIyLTEuMjItMS4yMmExMC41NCwxMC41NCwwLDAsMC00LDEuMjl2MTAuNTlIOTQuMjVWOTkuMDZoMi45MWwuMzgsMS4yOWExNS4yOSwxNS4yOSwwLDAsMSw2LjExLTEuNiwyLjksMi45LDAsMCwxLDIuODgsMS42MywxNSwxNSwwLDAsMSw2LjE0LTEuNjNjMi41NCwwLDMuNDUsMS43OSwzLjQ1LDQuNTF2MTEuMDZIMTEyLjNWMTAzLjY3YzAtLjgxLS4zNC0xLjIyLTEuMjItMS4yMmExMC4xMiwxMC4xMiwwLDAsMC00LDEuMjl2MTAuNTlaIi8+PHBvbHlnb24gcG9pbnRzPSI0Ny40OCAxMy42NCA2OC42NCAyNS44NiA2OC42NCA1MC4zIDQ3LjQ4IDM4LjA4IDQ3LjQ4IDEzLjY0IiBjbGFzcz0iY2xzLTEiLz48cG9seWdvbiBwb2ludHM9IjcwLjk2IDI1Ljg2IDcwLjk2IDUwLjMgOTIuMTMgMzguMDggOTIuMTMgMTMuNjQgNzAuOTYgMjUuODYiIGNsYXNzPSJjbHMtMiIvPjxwb2x5Z29uIHBvaW50cz0iMjQgMCAyNCAyNC40NCA0NS4xNiAzNi42NiA0NS4xNiAxMi4yMiAyNCAwIiBjbGFzcz0iY2xzLTEiLz48cG9seWdvbiBwb2ludHM9IjQ3LjQ4IDY1LjE5IDY4LjY0IDc3LjQxIDY4LjY0IDUzLjE0IDY4LjY0IDUyLjk4IDQ3LjQ4IDQwLjc2IDQ3LjQ4IDY1LjE5IiBjbGFzcz0iY2xzLTEiLz48cGF0aCBkPSJNODMuMTgsNjEuMzciIGNsYXNzPSJjbHMtMSIvPjxwYXRoIGQ9Ik00Ny40OCw0MC43NiIgY2xhc3M9ImNscy0xIi8+PC9nPjwvZz48L3N2Zz4=" vertex="1" parent="1">
          <mxGeometry x="138.48000000000002" y="147" width="60.52" height="60" as="geometry" />
        </mxCell>
        <mxCell id="eRYwjqBZ85bHJmp5E3Jt-3" value="" style="image;sketch=0;aspect=fixed;html=1;points=[];align=center;fontSize=12;image=img/lib/mscae/Docker.svg;" vertex="1" parent="1">
          <mxGeometry x="329.51" y="153" width="60.98" height="50" as="geometry" />
        </mxCell>
        <mxCell id="eRYwjqBZ85bHJmp5E3Jt-4" value="" style="shape=image;verticalLabelPosition=bottom;verticalAlign=top;imageAspect=0;aspect=fixed;image=data:image/svg+xml,PHN2ZyB4bWxucz0iaHR0cDovL3d3dy53My5vcmcvMjAwMC9zdmciIHZpZXdCb3g9IjAgMCA1MDAgNTAwIiBkYXRhLW5hbWU9IkxheWVyIDEiIGlkPSJMYXllcl8xIj48ZGVmcz48c3R5bGU+LmNscy0xe2ZpbGw6IzBmMTY4OTt9PC9zdHlsZT48L2RlZnM+PHBhdGggZD0iTTEzNi41MjkzOCwxMjEuMTM0NzhjLS41NzItLjU0MjUyLTEuMTk0NjItMS4xMjYzNi0xLjgxLTEuNzE3NjEtMTIuNjE2NzctMTIuMTIxMTUtMjIuMzgwOTItMjYuMTM2MzctMjguMjc5LTQyLjcwMi0xLjY1MDczLTQuNjM2MzctMi44OTY5Mi05LjM2NTE1LTIuNjc1ODctMTQuMzU4NzEuMDIxLS40NzM5LjAxOTU5LS45NDkxNS4wNTIyNi0xLjQyMjE0LjQ0NS02LjQ0NTk0LDQuNzU5MTItOS43MDMyMiwxMS4wNTgzOS04LjE3NjY5YTI3LjMyNSwyNy4zMjUsMCwwLDEsNS43MzE0OSwyLjE5NjUzYzYuODkwMjIsMy40NTUzOCwxMi41MDYyLDguNTYzNTksMTcuNjcwNTEsMTQuMTY1NzFhMTEyLjUyNjUxLDExMi41MjY1MSwwLDAsMSwyMS43MjIsMzMuNDI5NjUsOC4yOTYzNSw4LjI5NjM1LDAsMCwwLC4zODk0Ni44NjFjLjA3MTE2LjEyODU1LjIyMjMyLjIxMjgyLjU1OTI3LjUxODgzQTE3Ni4zNTcsMTc2LjM1NywwLDAsMSwyNDEuOTY4LDc5LjA2ODY0Yy0uMTc2NTEtLjg3NjEtLjI4MTk1LTEuNTQ1NzEtLjQ0NzcyLTIuMmExMTIuNDk0MzYsMTEyLjQ5NDM2LDAsMCwxLTIuNjUyOTItMzYuOTU2MzcsODQuMDc0NzgsODQuMDc0NzgsMCwwLDEsNC40NDQ0NC0yMS43NjM3OCwzMS4zMjU1NSwzMS4zMjU1NSwwLDAsMSw1LjQ3NjUxLTEwLjE3MTM5LDE1LjY4NywxNS42ODcsMCwwLDEsMy4xNjMzNi0yLjgyMTQ5LDcuMDI2LDcuMDI2LDAsMCwxLDguMDMyNTUtLjA1NiwxNy4yNzg1NCwxNy4yNzg1NCwwLDAsMSw1Ljg0MDIsNi43MzE4NUE1My4wNTQzNSw1My4wNTQzNSwwLDAsMSwyNzEuMDg2NTcsMjYuNTA4YTExMi41MDQ2OSwxMTIuNTA0NjksMCwwLDEsMi4xMjI2MywzMy4wMDM1Niw5NS41OTgwNiw5NS41OTgwNiwwLDAsMS0zLjQ5MDUyLDE5LjkxMDgxYzcuMTIxNzEsMS4zMTE5MywxNC4yMDk1NSwyLjMyODY5LDIxLjE0NzMsMy45NzcxM2ExODYuMzc5MDksMTg2LjM3OTA5LDAsMCwxLDIwLjQ0MDY5LDYuMDAzM0ExODguMzE2NzEsMTg4LjMxNjcxLDAsMCwxLDMzMS4wNzY5LDk3Ljk3MjFjNi4zNDUzOCwzLjE2NDMzLDEyLjM4NTUzLDYuOTQwNjYsMTguNzE3NTcsMTAuNTM4MjkuMjA1NzEtLjQzMy41MDQzOS0uOTQ5ODIuNzA2LTEuNTAyMTJBMTA4LjY1OTU5LDEwOC42NTk1OSwwLDAsMSwzODMuNDAxMjgsNjAuMjQ2YTM3Ljc1Nzg3LDM3Ljc1Nzg3LDAsMCwxLDExLjgyMi02Ljg4MywxNy4yNDU1OCwxNy4yNDU1OCwwLDAsMSwzLjY3ODI3LS44NDUxMmM2LjI2NC0uNzE3MjksOC44OTM1MSwzLjIyNDQsOS4zNTY1Myw3LjkzMTgzYTI5Ljk0MzcyLDI5Ljk0MzcyLDAsMCwxLS43NzM4MSwxMC4zNTQ2NkE4Ny45MDU1MSw4Ny45MDU1MSwwLDAsMSwzOTYuNzU0MjYsOTUuNDkyYy02Ljc5MDE2LDEwLjk3MTc4LTE0Ljg1MDE1LDIwLjg1NDk0LTI1LjA5MzA3LDI4LjgzMDQyLS4zMDIzNC4yMzU0LS41Njc4NC41MTgxNC0xLjA3OTg4Ljk5MDI5YTE3Ny43Nzk5MywxNzcuNzc5OTMsMCwwLDEsMjYuNTkyOTMsMzAuODgyNDQsMTAuOTYyMjcsMTAuOTYyMjcsMCwwLDEtMS42ODkuMjk3NjJjLTEwLjU5NTQ2LjAxNS0yMS4xOTExLS4wMTgyOS0zMS43ODYyMi4wNDYwN2E0LjAwNCw0LjAwNCwwLDAsMS0zLjE3MjQ2LTEuNjksMTQ3Ljg3NTIyLDE0Ny44NzUyMiwwLDAsMC04OC4xNzc3Ni00Ni41NDg0NiwxNDMuMzU4NjIsMTQzLjM1ODYyLDAsMCwwLTMwLjI3OTU1LTEuMTY5MjMsMTQ2LjQwNzM1LDE0Ni40MDczNSwwLDAsMC04Mi41MzcyOCwzMS44MTA1NCwxNDAuMDY2NjMsMTQwLjA2NjYzLDAsMCwwLTE2Ljk3NjE2LDE1Ljg0MTg2LDQuNzI4MzksNC43MjgzOSwwLDAsMS0zLjg2MzI2LDEuNzU3NDJjLTEwLjEyMDU2LS4wNzAyOC0yMC4yNDE4OC0uMDM1LTMwLjM2MjkzLS4wMzQ5NWgtMi4xNTIxMmMuNjE4LTIuNDA4LDYuODQwMjYtMTAuOTM3ODYsMTMuODgzNTItMTguNTUyODFDMTI1LjMxMzQ5LDEzMi4yNzQ0LDEzMC44Nzc2OCwxMjYuODgzOSwxMzYuNTI5MzgsMTIxLjEzNDc4WiIgY2xhc3M9ImNscy0xIi8+PHBhdGggZD0iTTM5NC41MjkzNCwzNDcuOTEyM2ExNzYuNjM4NTQsMTc2LjYzODU0LDAsMCwxLTIzLjk3MzQzLDI3LjE2MzM4Yy43MDk0MS41OTA2OCwxLjI4NTk0LDEuMDcwNDEsMS44NjIxMiwxLjU1MDU3QTEwOC4zMTQ1NiwxMDguMzE0NTYsMCwwLDEsNDA2LjEwMTMxLDQyNC43NzJhMzQuNjE4MzEsMzQuNjE4MzEsMCwwLDEsMi4yMDIsMTQuNDIwMjYsMTQuODg1NDQsMTQuODg1NDQsMCwwLDEtLjc0Nzg2LDMuNjkyMDYsNy4yMDc2Miw3LjIwNzYyLDAsMCwxLTguMTU3OTMsNS4wMjMwOCwyMi4yMzMyOSwyMi4yMzMyOSwwLDAsMS02Ljc2Mjc2LTIuMDA2MjksNTEuMjMyMzcsNTEuMjMyMzcsMCwwLDEtOS4xODE1MS01LjgxNTEsMTA3LjU5MTgzLDEwNy41OTE4MywwLDAsMS0zMi45MzYtNDYuNzA3MmMtLjE4NzQ2LS41MTMzNC0uMzkyMTgtMS4wMjA0LS43MjI0My0xLjg3NjkxYTE5NC42NTAwOCwxOTQuNjUwMDgsMCwwLDEtMjUuMDEyMjMsMTQuMDA3NzQsMTgxLjY2OTI1LDE4MS42NjkyNSwwLDAsMS0yNi42ODY5LDkuNzI0NDIsMTg3LjU1NjQ5LDE4Ny41NTY0OSwwLDAsMS0yOC4zMDQ1LDUuMzg4MDVjLjE2ODA3Ljg0MDE1LjI2NDQ2LDEuNTA5OC40Mzc0NSwyLjE1OTA3YTEwOS4xNzIsMTA5LjE3MiwwLDAsMSwyLjk3MDgsMzYuNDQzMTEsODAuODA0LDgwLjgwNCwwLDAsMS00LjQyMjg2LDIyLjQ3NzMsNzguMjQ5NzEsNzguMjQ5NzEsMCwwLDEtNC4xNjQ3NSw4Ljc0NDczLDEzLjM5LDEzLjM5LDAsMCwxLTIuMzM4NjUsMi45NzA4M2MtMy45ODAwOSw0LjEwOS04LjczMjI1LDQuMTQ0LTEyLjYxMTU3LS4wNzM2NmEyNy4yODAxMiwyNy4yODAxMiwwLDAsMS0zLjkwNy01LjYxNzc2Yy0zLjA3Njg1LTUuNzc1NjktNC42NjA0LTEyLjA1Ni01Ljc5MS0xOC40NjAyMWExMTYuODYzMjksMTE2Ljg2MzI5LDAsMCwxLTEuMzU4OTMtMjYuNDY1LDk0LjQ3OTUsOTQuNDc5NSwwLDAsMSwyLjg4NDY2LTE5LjE4NTEzYy4xNDAwOS0uNTMyNjkuMjY4LTEuMDY5Ni4zNzEzNC0xLjYxMDM0LjAyNjI5LS4xMzc1NC0uMDYzNDItLjI5NzMtLjE3MDY3LS43MzgyNWExNzYuMTIxMDgsMTc2LjEyMTA4LDAsMCwxLTgwLjk2ODU1LTI0Ljk5Mzg2Yy0uNDA5OTIuOTA5MjEtLjc2MjA2LDEuNjc0NzMtMS4xMDE2OCwyLjQ0NTc5YTExMC40NzcyOSwxMTAuNDc3MjksMCwwLDEtMzAuOTAxMTIsNDEuNDIwNDEsMzguMTYwNzEsMzguMTYwNzEsMCwwLDEtMTIuMDQ3MDYsNi45NTkwOSwxMi4wODk4NywxMi4wODk4NywwLDAsMS02LjUxNTE2LjcwMDIzLDcuMTE4NTgsNy4xMTg1OCwwLDAsMS01LjQwMzI5LTQuNDg5MmMtMS40MTYxNC0zLjQyNC0xLjE2NTI2LTYuOTg1LS42ODQzOC0xMC41MTY5MWE1NS40NTI2Nyw1NS40NTI2NywwLDAsMSw0LjMwNzY4LTE0LjI1MDM3QTExMi40OTk4NSwxMTIuNDk5ODUsMCwwLDEsMTM0Ljg4NzYxLDM4MC43NzljLjQ1OS0uNDM0NjEuOTI5ODEtLjg1NywxLjM4MDg3LTEuMjk5NTRhMy43NjAyOSwzLjc2MDI5LDAsMCwwLC4zNjUzNC0uNjU1MjksMTc4LjkwNDY2LDE3OC45MDQ2NiwwLDAsMS0yOC40NjktMzEuMzE2NzJjLjk4NDU4LS4wODAxOCwxLjY0MzI3LS4xOCwyLjMwMjA1LS4xODA2LDEwLjUxNDM2LS4wMDk3NiwyMS4wMjkuMDI3MzYsMzEuNTQyODQtLjA0MzU4YTQuNzA1NTQsNC43MDU1NCwwLDAsMSwzLjcwMzQ0LDEuNjI2MTUsMTQ2Ljk0NjExLDE0Ni45NDYxMSwwLDAsMCwzOS40MDI3NiwyOC44ODQ5NCwxMzkuOTQ2NjcsMTM5Ljk0NjY3LDAsMCwwLDQ5LjcwMzk1LDE0Ljc3MzY3cTcwLjY4MDQ4LDYuODcwNjcsMTIxLjU5OTcxLTQyLjg1NDUyYTcuNjQ1NzEsNy42NDU3MSwwLDAsMSw1Ljk5MjYxLTIuNDQzNDdjOS44MDEzOS4xMjEyMSwxOS42MDUxMi4wNDk4NiwyOS40MDguMDQ5ODZoMi41MzM1M1oiIGNsYXNzPSJjbHMtMSIvPjxwYXRoIGQ9Ik0zNTAuNzM1NzYsMTk3Ljc2MTY3YzIuNzg3MTEsMCw1LjQ3MDM3LjE4OTE5LDguMTE0ODctLjA1MDEsMi45OTUxLS4yNzEsNS4xMzkuODAwMSw3LjMyMzU0LDIuODEzMDgsMTIuNjEyNzUsMTEuNjIyMTQsMjUuMzU3MzIsMjMuMTAxMjksMzguMDU4NjMsMzQuNjI3MjkuNjM4NTUuNTc5NDgsMS4yOTAzOSwxLjE0NDMyLDIuMTEwMSwxLjg3MDEuNzY0NDUtLjY1NzE4LDEuNDgxMTktMS4yNDMxOCwyLjE2NDgzLTEuODY1NVE0MjguMTQ2MzYsMjE3LjI3OTE0LDQ0Ny43NTYsMTk5LjM3YTUuNDQ3NzIsNS40NDc3MiwwLDAsMSw0LjIwMzU4LTEuNjQ1NzZjMy4yMTg4OC4xMzAzOCw2LjQ0NjczLjAzNzQ2LDkuODQxMi4wMzc0NlYzMDMuMTMwMzZjLTEuNzIzMDkuNTAzNjgtMjQuODc1Ni42MDM2Ni0yNy42MzkxMS4wNjExdi01My4zNjJsLS41MzY1Ni0uMjU0MjdjLTkuMDEwNzksOC4yMTc4NC0xOC4wMjE2LDE2LjQzNTY0LTI3LjIzNzg2LDI0Ljg0MDgtOS4yMjU4NC04LjMxMTE5LTE4LjM0MTk0LTE2LjUyMzQ3LTI3LjQ1OC0yNC43MzU3N2wtLjUyNDQ5LjE5MTkyYy0uMDIzLDQuNDUzNTktLjAwNzc0LDguOTA4MjgtLjAxMDQ2LDEzLjM2MjMzcS0uMDA0MDgsNi42Mzk0Mi0uMDAwNTgsMTMuMjc4ODJ2MjYuODcyMTFoLTI3LjQyOEMzNTAuNDUxNjEsMzAxLjYxMjQzLDM1MC4yMTI4OSwyMDMuNzIzNDIsMzUwLjczNTc2LDE5Ny43NjE2N1oiIGNsYXNzPSJjbHMtMSIvPjxwYXRoIGQ9Ik05Ny42MzQzNiwxOTcuODgyMjloMjcuMjYzMjVjLjU1MDU0LDEuNzUyNTEuNjU4MjEsMTAyLjk3MTM5LjA5NDY5LDEwNS41MjVIOTcuNzA0NjhjLS4xNTAyMS02LjcwMzQ0LS4wNDczNi0xMy4zODM5NC0uMDY2MjItMjAuMDYxMzEtLjAxODcxLTYuNjIyNjEtLjAwNDEtMTMuMjQ1MzEtLjAwNDEtMjAuMDM5NThINjMuODQ2NzlWMzAzLjA0N2MtMi4wNTk0Ni42MTUxOC0yNS4zMzM3NC42NzQxNy0yNy42NDc1OC4xMjNWMTk3Ljg5NDM2SDYzLjczNzQydjM3LjE4ODc2YzEuOTY3OTMuNTY4NDQsMzAuOTIzMTkuNjczMzksMzMuODcyLjEyOTQyLjAwODE4LTIuOTc3MTMuMDItNi4wMjY0Ni4wMjQtOS4wNzU4cS4wMDYzLTQuNzQzMy4wMDA5NC05LjQ4NjYsMC00LjYyNSwwLTkuMjVDOTcuNjM0MzcsMjA0LjMyMTc5LDk3LjYzNDM2LDIwMS4yNDM0Niw5Ny42MzQzNiwxOTcuODgyMjlaIiBjbGFzcz0iY2xzLTEiLz48cGF0aCBkPSJNMTU3LjU3NTcsMzAzLjM2ODNWMTk4LjE5NDZjMS42MTctLjUyOTEzLDYxLjU0NS0uNzM1ODYsNjUuNDYyMTktLjIwNDU3djIyLjQxNDMyYy0uODc4NjkuMDYzLTEuNzg1Ny4xODM0MS0yLjY5Mjc5LjE4NDU0cS0xNi4wMDg2LjAxOTk0LTMyLjAxNzI1LjAwODgxbC0yLjk2NzY3LDB2MTcuNDMzNTNIMjE4LjcwNjdWMjYxLjIyMjlIMTg1LjY1ODM4Yy0uNTUzMzksMS45ODUwOS0uNzA1MzEsMTUuODE2ODEtLjI1NjIyLDE5LjY0NTgzLjg0NDg4LjA1Njc5LDEuNzUuMTY5NTIsMi42NTUzLjE3MDU5cTE2LjAwODYyLjAxODYzLDMyLjAxNzI3LjAwODIyaDIuOTY5NDVWMzAzLjM2ODNaIiBjbGFzcz0iY2xzLTEiLz48cGF0aCBkPSJNMjU0LjI4MjkxLDMwMy40MDg1NWMtLjUwMDc0LTIuODIyMzItLjM5OTQ4LTEwMy42MDE4MS4wOTc0Ny0xMDUuNTE3MzVoMjcuMTYyMDh2NzcuNzY0NTNjMS4xNzE3My4wNjA4NCwyLjA5MTIyLjE0OTIxLDMuMDEwNzcuMTUwMDVxMTYuMTI4LjAxNDY4LDMyLjI1NjEuMDA2NThjLjkyNTYyLDAsMS44NTEyNSwwLDIuOTA3MzMsMHYyNy41OTYyMloiIGNsYXNzPSJjbHMtMSIvPjwvc3ZnPg==" vertex="1" parent="1">
          <mxGeometry x="496.5" y="144" width="70" height="70" as="geometry" />
        </mxCell>
        <mxCell id="eRYwjqBZ85bHJmp5E3Jt-8" value="" style="endArrow=block;html=1;rounded=0;exitX=1;exitY=0.5;exitDx=0;exitDy=0;entryX=0;entryY=0.5;entryDx=0;entryDy=0;endFill=1;strokeWidth=4;" edge="1" parent="1" source="owPEdgUP4TcelFvnXaxz-2" target="owPEdgUP4TcelFvnXaxz-3">
          <mxGeometry width="50" height="50" relative="1" as="geometry">
            <mxPoint x="210" y="270" as="sourcePoint" />
            <mxPoint x="260" y="220" as="targetPoint" />
          </mxGeometry>
        </mxCell>
        <mxCell id="eRYwjqBZ85bHJmp5E3Jt-9" value="" style="endArrow=block;html=1;rounded=0;exitX=1;exitY=0.5;exitDx=0;exitDy=0;entryX=-0.002;entryY=0.532;entryDx=0;entryDy=0;endFill=1;strokeWidth=4;entryPerimeter=0;" edge="1" parent="1" source="owPEdgUP4TcelFvnXaxz-3" target="owPEdgUP4TcelFvnXaxz-4">
          <mxGeometry width="50" height="50" relative="1" as="geometry">
            <mxPoint x="410" y="176.71" as="sourcePoint" />
            <mxPoint x="520" y="176.71" as="targetPoint" />
          </mxGeometry>
        </mxCell>
      </root>
    </mxGraphModel>
  </diagram>
</mxfile>
